#N canvas 0 22 205 435 10;
#X obj 52 74 line;
#X obj 52 52 pack f 500;
#X obj 52 131 * 0.9;
#X obj 52 183 +;
#X obj 52 205 / 2;
#X obj 67 157 f;
#X obj 52 107 t f b;
#X obj 52 227 t f f;
#X obj 52 311 line;
#X obj 52 28 inlet;
#X obj 52 353 outlet;
#X obj 52 289 pack f 250;
#X obj 52 249 * 1;
#X obj 52 333 * 1;
#X connect 0 0 6 0;
#X connect 1 0 0 0;
#X connect 2 0 3 0;
#X connect 3 0 4 0;
#X connect 4 0 7 0;
#X connect 5 0 3 1;
#X connect 6 0 2 0;
#X connect 6 1 5 0;
#X connect 7 0 12 0;
#X connect 7 1 5 1;
#X connect 8 0 13 0;
#X connect 9 0 1 0;
#X connect 11 0 8 0;
#X connect 12 0 11 0;
#X connect 13 0 10 0;
