#N canvas 122 56 569 336 10;
#N canvas 0 22 450 278 (subpatch) 0;
#X array \$1-av 1000 float 0;
#X coords 0 1000 999 0 200 140 1 0 0;
#X restore 101 140 graph;
#X obj 349 126 t f b;
#X obj 430 153 f;
#X obj 457 153 + 1;
#X obj 430 175 mod 1000;
#X obj 430 101 r axis-reset;
#X msg 430 123 0;
#X obj 349 30 r \$1-av-val;
#X obj 349 196 tabwrite \$1-av;
#X text 114 59 current = (previous*0.9+current)/2;
#X connect 1 0 8 0;
#X connect 1 1 2 0;
#X connect 2 0 3 0;
#X connect 2 0 4 0;
#X connect 3 0 2 1;
#X connect 4 0 8 1;
#X connect 5 0 6 0;
#X connect 6 0 2 0;
#X connect 7 0 1 0;
#X coords 0 0 1 6400 203 180 1 100 100;
