#N canvas 0 22 579 306 10;
#X obj 349 242 tabwrite \$1-\$2;
#N canvas 0 22 450 278 (subpatch) 0;
#X array \$1-\$2 1000 float 0;
#X coords 0 1 999 -1 200 140 1 0 0;
#X restore 101 140 graph;
#X obj 349 140 r \$1-\$2-val;
#X obj 349 162 t f b;
#X obj 430 189 f;
#X obj 456 189 + 1;
#X obj 430 211 mod 1000;
#X obj 436 138 r axis-reset;
#X msg 436 160 0;
#X connect 2 0 3 0;
#X connect 3 0 0 0;
#X connect 3 1 4 0;
#X connect 4 0 5 0;
#X connect 4 0 6 0;
#X connect 5 0 4 1;
#X connect 6 0 0 1;
#X connect 7 0 8 0;
#X connect 8 0 4 0;
#X coords 0 -1 1 1 203 180 1 100 100;
