#N canvas 776 175 453 388 10;
#N canvas 243 281 1192 712 playhead 1;
#X obj 660 212 int;
#X obj 660 234 / 120;
#X obj 660 279 pow;
#X obj 670 327 t b f;
#X msg 660 257 2 \$1;
#X obj 660 190 * 10;
#X msg 671 447 0;
#X obj 671 402 r \$0-stop;
#X obj 676 145 r \$0-play;
#X obj 660 511 phasor~;
#X obj 738 632 +~ 0.5;
#X obj 738 653 wrap~;
#X msg 699 489 0;
#X obj 660 678 s~ \$0-phase;
#X obj 738 678 s~ \$0-phase2;
#X obj 56 543 outlet~;
#X obj 56 220 inlet~;
#X obj 660 118 r \$0-pitch;
#X obj 683 424 loadbang;
#X obj 660 169 f 0;
#X obj 660 353 - 1;
#X obj 56 505 *~;
#X obj 238 301 env~ 64;
#X obj 238 323 dbtorms;
#X obj 238 437 sel 1;
#X obj 71 481 * 0.001;
#X obj 71 458 m_sm2ms;
#X obj 257 370 v \$0-indexPos;
#X obj 56 242 wrap~;
#X obj 660 374 / 0.025;
#X text 709 374 Chunk Size;
#X obj 238 345 t f f f;
#X obj 699 349 r \$0-chunk-size;
#X obj 848 111 loadbang;
#X msg 848 133 25;
#X obj 848 155 * 0.001;
#X obj 848 181 s \$0-chunk-size;
#X obj 670 305 r \$0-speed;
#X obj 238 415 change -1;
#X obj 238 460 outlet;
#X obj 699 467 r \$0-play;
#X obj 68 278 s~ \$0-readphasor;
#X obj 71 391 loadbang;
#X obj 71 414 v \$2-tableSize-v;
#X obj 660 580 *~ 1;
#X obj 681 549 r \$0-varispeed-mode;
#X obj 238 394 > 0.99;
#X obj 84 370 r \$2-tableSize-s-v-b;
#X obj 71 436 + 3;
#X connect 0 0 1 0;
#X connect 1 0 4 0;
#X connect 2 0 20 0;
#X connect 3 0 20 0;
#X connect 3 1 20 1;
#X connect 4 0 2 0;
#X connect 5 0 0 0;
#X connect 6 0 9 0;
#X connect 7 0 6 0;
#X connect 8 0 19 0;
#X connect 9 0 44 0;
#X connect 10 0 11 0;
#X connect 11 0 14 0;
#X connect 12 0 9 1;
#X connect 16 0 28 0;
#X connect 17 0 19 0;
#X connect 18 0 6 0;
#X connect 19 0 5 0;
#X connect 20 0 29 0;
#X connect 21 0 15 0;
#X connect 22 0 23 0;
#X connect 23 0 31 0;
#X connect 24 0 39 0;
#X connect 25 0 21 1;
#X connect 26 0 25 0;
#X connect 28 0 22 0;
#X connect 28 0 21 0;
#X connect 28 0 41 0;
#X connect 29 0 9 0;
#X connect 31 1 27 0;
#X connect 31 2 39 0;
#X connect 32 0 29 1;
#X connect 33 0 34 0;
#X connect 34 0 35 0;
#X connect 35 0 36 0;
#X connect 37 0 3 0;
#X connect 38 0 24 0;
#X connect 40 0 12 0;
#X connect 42 0 43 0;
#X connect 43 0 48 0;
#X connect 44 0 13 0;
#X connect 44 0 10 0;
#X connect 45 0 44 1;
#X connect 46 0 38 0;
#X connect 47 0 43 0;
#X connect 48 0 26 0;
#X restore 57 193 pd playhead;
#X obj 57 163 +~ 0;
#N canvas 92 119 492 387 offset 0;
#X obj 78 56 r \$0-offset;
#X obj 78 304 outlet;
#X obj 93 128 m_sm2ms;
#X obj 78 150 /;
#X obj 93 104 v \$2-tableSize-v;
#X obj 93 83 loadbang;
#X connect 0 0 3 0;
#X connect 2 0 3 1;
#X connect 3 0 1 0;
#X connect 4 0 2 0;
#X connect 5 0 4 0;
#X restore 78 140 pd offset;
#X text 55 66 ------------------------------------------------------------
;
#X obj 57 343 outlet~;
#X obj 189 343 outlet~;
#N canvas 1216 108 704 634 array-player-left 0;
#X obj 112 487 hip~ 5;
#X obj 112 434 *~;
#X obj 112 286 +~;
#X obj 112 196 samphold~;
#X obj 112 242 *~;
#X obj 112 463 +~;
#X obj 112 310 *~ 44100;
#X obj 112 336 +~ 1;
#X obj 378 406 *~;
#X obj 378 286 +~;
#X obj 378 198 samphold~;
#X obj 378 242 *~;
#X obj 564 315 -~ 0.5;
#X obj 564 339 *~ 0.5;
#X obj 564 362 cos~;
#X obj 378 310 *~ 44100;
#X obj 378 336 +~ 1;
#X obj 112 518 outlet~;
#X obj 112 135 r \$0-chunk-size;
#X obj 378 153 r \$0-chunk-size;
#X obj 429 178 r~ \$0-phase2;
#X obj 163 172 r~ \$0-phase;
#X obj 564 291 r~ \$0-phase2;
#X obj 127 221 r~ \$0-phase;
#X obj 393 222 r~ \$0-phase2;
#X obj 324 139 inlet~;
#X obj 303 343 -~ 0.5;
#X obj 303 367 *~ 0.5;
#X obj 303 390 cos~;
#X obj 303 319 r~ \$0-phase;
#X obj 112 380 tabread~ \$2-1;
#X obj 378 362 tabread~ \$2-1;
#X connect 0 0 17 0;
#X connect 1 0 5 0;
#X connect 2 0 6 0;
#X connect 3 0 4 0;
#X connect 4 0 2 0;
#X connect 5 0 0 0;
#X connect 6 0 7 0;
#X connect 7 0 30 0;
#X connect 8 0 5 1;
#X connect 9 0 15 0;
#X connect 10 0 11 0;
#X connect 11 0 9 0;
#X connect 12 0 13 0;
#X connect 13 0 14 0;
#X connect 14 0 8 1;
#X connect 15 0 16 0;
#X connect 16 0 31 0;
#X connect 18 0 3 0;
#X connect 19 0 10 0;
#X connect 20 0 10 1;
#X connect 21 0 3 1;
#X connect 22 0 12 0;
#X connect 23 0 4 1;
#X connect 24 0 11 1;
#X connect 25 0 2 1;
#X connect 25 0 9 1;
#X connect 26 0 27 0;
#X connect 27 0 28 0;
#X connect 28 0 1 1;
#X connect 29 0 26 0;
#X connect 30 0 1 0;
#X connect 31 0 8 0;
#X restore 57 232 pd array-player-left;
#N canvas 166 86 704 634 array-player-right 0;
#X obj 112 487 hip~ 5;
#X obj 112 434 *~;
#X obj 112 286 +~;
#X obj 112 196 samphold~;
#X obj 112 242 *~;
#X obj 303 343 -~ 0.5;
#X obj 303 367 *~ 0.5;
#X obj 303 390 cos~;
#X obj 112 463 +~;
#X obj 112 310 *~ 44100;
#X obj 112 336 +~ 1;
#X obj 378 406 *~;
#X obj 378 286 +~;
#X obj 378 198 samphold~;
#X obj 378 242 *~;
#X obj 564 315 -~ 0.5;
#X obj 564 339 *~ 0.5;
#X obj 564 362 cos~;
#X obj 378 310 *~ 44100;
#X obj 378 336 +~ 1;
#X obj 112 538 outlet~;
#X obj 112 135 r \$0-chunk-size;
#X obj 378 153 r \$0-chunk-size;
#X obj 429 178 r~ \$0-phase2;
#X obj 163 172 r~ \$0-phase;
#X obj 303 319 r~ \$0-phase;
#X obj 564 291 r~ \$0-phase2;
#X obj 127 221 r~ \$0-phase;
#X obj 393 222 r~ \$0-phase2;
#X obj 324 139 inlet~;
#X obj 378 362 tabread~ \$2-2;
#X obj 112 380 tabread~ \$2-2;
#X connect 0 0 20 0;
#X connect 1 0 8 0;
#X connect 2 0 9 0;
#X connect 3 0 4 0;
#X connect 4 0 2 0;
#X connect 5 0 6 0;
#X connect 6 0 7 0;
#X connect 7 0 1 1;
#X connect 8 0 0 0;
#X connect 9 0 10 0;
#X connect 10 0 31 0;
#X connect 11 0 8 1;
#X connect 12 0 18 0;
#X connect 13 0 14 0;
#X connect 14 0 12 0;
#X connect 15 0 16 0;
#X connect 16 0 17 0;
#X connect 17 0 11 1;
#X connect 18 0 19 0;
#X connect 19 0 30 0;
#X connect 21 0 3 0;
#X connect 22 0 13 0;
#X connect 23 0 13 1;
#X connect 24 0 3 1;
#X connect 25 0 5 0;
#X connect 26 0 15 0;
#X connect 27 0 4 1;
#X connect 28 0 14 1;
#X connect 29 0 2 1;
#X connect 29 0 12 1;
#X connect 30 0 11 0;
#X connect 31 0 1 0;
#X restore 204 232 pd array-player-right;
#N canvas 183 351 450 300 smooth-output 0;
#X obj 145 124 cos~;
#X obj 145 82 *~ 0.5;
#X obj 145 103 -~ 0.25;
#X obj 145 165 clip~ 0 1;
#X obj 145 193 outlet~;
#X obj 145 50 r~ \$0-readphasor;
#X obj 145 145 *~ 10000;
#X connect 0 0 6 0;
#X connect 1 0 2 0;
#X connect 2 0 0 0;
#X connect 3 0 4 0;
#X connect 5 0 1 0;
#X connect 6 0 3 0;
#X restore 72 272 pd smooth-output;
#X obj 189 318 *~;
#X obj 57 318 *~;
#X obj 57 86 r~ phasor-\$3;
#X text 55 54 Array playback driven by global phasor~;
#X obj 243 280 outlet playback-progress;
#X obj 57 112 *~ 1;
#X obj 138 84 inlet;
#X connect 0 0 6 0;
#X connect 0 0 7 0;
#X connect 0 1 13 0;
#X connect 1 0 0 0;
#X connect 2 0 1 1;
#X connect 6 0 10 0;
#X connect 7 0 9 1;
#X connect 8 0 10 1;
#X connect 8 0 9 0;
#X connect 9 0 5 0;
#X connect 10 0 4 0;
#X connect 11 0 14 0;
#X connect 14 0 1 0;
#X connect 15 0 14 1;
