#N canvas 0 22 427 425 10;
#X obj 66 233 phasor~;
#N canvas 219 300 262 313 speed 0;
#X obj 58 36 inlet;
#X obj 58 260 outlet;
#X obj 58 58 t f f;
#X obj 85 83 value \$0-playbackSpeed;
#X obj 58 215 t f f;
#X obj 85 236 value \$0-phasorSpeed;
#X obj 58 190 / 12.2239;
#X obj 109 116 loadbang;
#X obj 109 140 \$1;
#X obj 109 162 * 0.0477496;
#X floatatom 129 191 9 0 0 0 - - -;
#X obj 168 115 bng 15 250 50 0 empty empty empty 17 7 0 10 -262144
-1 -1;
#X connect 0 0 2 0;
#X connect 2 0 6 0;
#X connect 2 1 3 0;
#X connect 4 0 1 0;
#X connect 4 1 5 0;
#X connect 6 0 4 0;
#X connect 7 0 8 0;
#X connect 8 0 9 0;
#X connect 9 0 6 1;
#X connect 9 0 10 0;
#X connect 11 0 8 0;
#X restore 214 77 pd speed;
#X msg 105 209 0;
#X obj 105 180 r \$0-play;
#X obj 66 176 *;
#X obj 66 137 t b f;
#X msg 102 96 0;
#X msg 66 79 1;
#X obj 214 52 r g-phasor-speed;
#X obj 102 71 r g-phasor-stop;
#X obj 154 284 env~ 64;
#X obj 154 306 dbtorms;
#X obj 154 260 wrap~;
#X obj 154 352 int;
#X obj 154 376 change;
#X obj 154 326 * 256;
#X obj 66 260 s~ phasor-\$1-no-reset;
#X obj 154 399 s phasor-\$1-tick-no-reset;
#X obj 66 51 r start;
#X connect 0 0 12 0;
#X connect 0 0 16 0;
#X connect 1 0 4 0;
#X connect 2 0 0 1;
#X connect 3 0 2 0;
#X connect 4 0 0 0;
#X connect 5 0 4 0;
#X connect 5 1 4 1;
#X connect 6 0 5 0;
#X connect 7 0 5 0;
#X connect 7 0 2 0;
#X connect 8 0 1 0;
#X connect 9 0 6 0;
#X connect 10 0 11 0;
#X connect 11 0 15 0;
#X connect 12 0 10 0;
#X connect 13 0 14 0;
#X connect 14 0 17 0;
#X connect 15 0 13 0;
#X connect 18 0 7 0;
