#N canvas 0 22 565 869 10;
#N canvas 0 22 450 278 (subpatch) 0;
#X array \$1-melody-seq 8 float 3;
#A 0 7.80001 5.57146 4.02862 2.40007 4.02862 5.05718 8.05715 0.342944
;
#X coords 0 0 8 12 200 140 1 0 0;
#X restore 83 149 graph;
#X obj 138 408 tabread \$1-melody-seq;
#X obj 138 430 int;
#X obj 138 453 notes 4 60 0 4 7 11;
#X floatatom 138 475 5 0 0 0 - - -, f 5;
#X obj 164 529 pack f f;
#X floatatom 351 520 5 0 0 0 - - -, f 5;
#X floatatom 273 521 8 0 0 0 - - -, f 8;
#X msg 273 546 freq \$1;
#X msg 351 546 q \$1;
#X obj 164 595 e_platereverb;
#X obj 164 644 e_reslop poilop 1000;
#X msg 290 611 dry \$1;
#X floatatom 291 587 5 0 0 0 - - -, f 5;
#X msg 349 599 dry \$1;
#X floatatom 350 575 5 0 0 0 - - -, f 5;
#X obj 237 770 reggae-del;
#X obj 164 809 throw~ LEFT;
#X obj 244 809 throw~ RIGHT;
#X obj 237 748 *~;
#X obj 252 725 lop~ 10;
#X floatatom 252 695 5 0 0 0 - - -, f 5;
#X obj 139 380 r step;
#X obj 164 573 *~ 0.1;
#X obj 338 715 r x-peak-interval;
#X msg 338 737 base-time \$1;
#X floatatom 428 747 5 0 0 0 - - -, f 5;
#X obj 341 361 r 0-z-val;
#X obj 164 507 makenote 100 50;
#X obj 341 453 change;
#X obj 341 407 notes 4 60 0 4 7 11;
#X floatatom 421 458 5 0 0 0 - - -, f 5;
#X obj 341 383 m_scale -1 1 0 4;
#X obj 164 551 super-saw;
#X connect 1 0 2 0;
#X connect 2 0 3 0;
#X connect 3 0 4 0;
#X connect 3 0 28 0;
#X connect 5 0 33 0;
#X connect 6 0 9 0;
#X connect 7 0 8 0;
#X connect 10 0 11 0;
#X connect 10 1 11 0;
#X connect 11 0 19 0;
#X connect 11 0 17 0;
#X connect 11 0 18 0;
#X connect 12 0 11 1;
#X connect 13 0 12 0;
#X connect 14 0 10 2;
#X connect 15 0 14 0;
#X connect 16 0 17 0;
#X connect 16 1 18 0;
#X connect 19 0 16 0;
#X connect 20 0 19 1;
#X connect 21 0 20 0;
#X connect 22 0 1 0;
#X connect 23 0 10 0;
#X connect 23 0 10 1;
#X connect 24 0 25 0;
#X connect 24 0 26 0;
#X connect 25 0 16 1;
#X connect 28 0 5 0;
#X connect 28 1 5 1;
#X connect 29 0 28 0;
#X connect 30 0 31 0;
#X connect 30 0 29 0;
#X connect 32 0 30 0;
