#N canvas 404 361 717 404 10;
#X obj 86 161 osc~ 440;
#X obj 86 183 *~ 10000;
#X obj 86 205 clip~ -1 1;
#X obj 86 109 mtof;
#X obj 86 63 loadbang;
#X obj 86 288 lop~ 400;
#X msg 299 196 freq \$1;
#X obj 86 85 \$3;
#X obj 86 247 *~ 0.1;
#X obj 189 219 c_lfo \$0-lfo 1 10 saw;
#X obj 189 241 m_scale 0 1 20 2000;
#X obj 299 171 m_scale -1 1 0.2 1;
#X obj 86 316 outlet~;
#X obj 213 293 makenote 100 100;
#X obj 213 318 noteout \$4;
#X obj 204 68 r \$1-\$2-val;
#X obj 204 90 m_scale -1 1;
#X obj 441 85 int;
#X obj 441 335 noteout \$4;
#X obj 441 151 list trim;
#X obj 441 129 list prepend 0;
#X obj 441 198 notes 6 12 40 47 52 55 59 64;
#X obj 471 224 notes 6 12 40 45 52 57 61 64;
#X obj 500 249 notes 6 12 43 47 52 55 59 67;
#X obj 520 279 notes 6 12 42 47 54 59 62 64;
#X obj 441 173 route 0 1 2 3;
#X obj 441 37 r \$1-\$2-val;
#X obj 522 105 r scale-notes;
#X floatatom 551 162 5 0 0 0 - - -, f 5;
#X obj 441 107 change;
#X obj 441 61 m_scale -1 1 0 2;
#X obj 441 310 pack f 100;
#X floatatom 514 325 5 0 0 0 - - -, f 5;
#X floatatom 402 132 5 0 0 0 - - -, f 5;
#X connect 0 0 1 0;
#X connect 1 0 2 0;
#X connect 2 0 8 0;
#X connect 3 0 0 0;
#X connect 4 0 7 0;
#X connect 5 0 12 0;
#X connect 6 0 9 1;
#X connect 7 0 3 0;
#X connect 8 0 5 0;
#X connect 9 0 10 0;
#X connect 10 0 5 1;
#X connect 11 0 6 0;
#X connect 13 0 14 0;
#X connect 13 1 14 1;
#X connect 15 0 16 0;
#X connect 17 0 29 0;
#X connect 19 0 25 0;
#X connect 20 0 19 0;
#X connect 21 0 31 0;
#X connect 22 0 31 0;
#X connect 23 0 31 0;
#X connect 24 0 31 0;
#X connect 25 0 21 0;
#X connect 25 1 22 0;
#X connect 25 2 23 0;
#X connect 25 3 24 0;
#X connect 26 0 30 0;
#X connect 27 0 20 1;
#X connect 29 0 20 0;
#X connect 29 0 33 0;
#X connect 30 0 17 0;
#X connect 31 0 18 0;
#X connect 31 0 32 0;
