#N canvas 101 79 763 649 10;
#X obj 86 161 osc~ 440;
#X obj 86 183 *~ 10000;
#X obj 86 205 clip~ -1 1;
#X obj 86 109 mtof;
#X obj 86 63 loadbang;
#X obj 86 288 lop~ 400;
#X msg 299 196 freq \$1;
#X obj 86 85 \$3;
#X obj 86 247 *~ 0.1;
#X obj 189 219 c_lfo \$0-lfo 1 10 saw;
#X obj 189 241 m_scale 0 1 20 2000;
#X obj 299 171 m_scale -1 1 0.2 1;
#X obj 213 293 makenote 100 100;
#X obj 213 318 noteout \$4;
#X obj 204 68 r \$1-\$2-val;
#X obj 204 90 m_scale -1 1;
#X obj 441 85 int;
#X obj 441 565 noteout \$4;
#X obj 441 151 list trim;
#X obj 441 129 list prepend 0;
#X obj 441 198 notes 6 12 40 47 52 55 59 64;
#X obj 471 224 notes 6 12 40 45 52 57 61 64;
#X obj 500 249 notes 6 12 43 47 52 55 59 67;
#X obj 520 279 notes 6 12 42 47 54 59 62 64;
#X obj 441 173 route 0 1 2 3;
#X obj 441 37 r \$1-\$2-val;
#X obj 522 105 r scale-notes;
#X floatatom 551 162 5 0 0 0 - - -, f 5;
#X obj 441 107 change;
#X obj 441 310 pack f 100;
#X floatatom 402 132 5 0 0 0 - - -, f 5;
#X obj 441 448 t b b;
#X msg 441 470 128;
#X obj 441 515 f;
#X obj 467 515 + 1;
#X msg 441 537 \$1 0;
#X msg 470 468 0;
#X obj 441 492 until;
#X obj 441 362 t b a b;
#X msg 480 391 stop;
#X obj 441 61 m_scale -1 1 0 2;
#X obj 505 448 bng 15 250 50 0 empty empty empty 17 7 0 10 -262144
-1 -1;
#X obj 441 420 del 500;
#X connect 0 0 1 0;
#X connect 1 0 2 0;
#X connect 2 0 8 0;
#X connect 3 0 0 0;
#X connect 4 0 7 0;
#X connect 6 0 9 1;
#X connect 7 0 3 0;
#X connect 8 0 5 0;
#X connect 9 0 10 0;
#X connect 10 0 5 1;
#X connect 11 0 6 0;
#X connect 12 0 13 0;
#X connect 12 1 13 1;
#X connect 14 0 15 0;
#X connect 16 0 28 0;
#X connect 18 0 24 0;
#X connect 19 0 18 0;
#X connect 20 0 29 0;
#X connect 21 0 29 0;
#X connect 22 0 29 0;
#X connect 23 0 29 0;
#X connect 24 0 20 0;
#X connect 24 1 21 0;
#X connect 24 2 22 0;
#X connect 24 3 23 0;
#X connect 25 0 40 0;
#X connect 26 0 19 1;
#X connect 28 0 19 0;
#X connect 28 0 30 0;
#X connect 29 0 38 0;
#X connect 31 0 32 0;
#X connect 31 1 36 0;
#X connect 32 0 37 0;
#X connect 33 0 34 0;
#X connect 33 0 35 0;
#X connect 34 0 33 1;
#X connect 35 0 17 0;
#X connect 36 0 33 1;
#X connect 37 0 33 0;
#X connect 38 0 42 0;
#X connect 38 1 17 0;
#X connect 38 2 39 0;
#X connect 39 0 42 0;
#X connect 40 0 16 0;
#X connect 42 0 31 0;
#X connect 42 0 41 0;
