#N canvas 39 376 669 405 10;
#X obj 58 106 int;
#X obj 58 128 change;
#X obj 58 327 makenote 100 100;
#X obj 139 122 r scale-notes;
#X obj 58 172 list trim;
#X obj 58 150 list prepend 0;
#X obj 58 219 notes 6 12 40 47 52 55 59 64;
#X obj 88 245 notes 6 12 40 45 52 57 61 64;
#X obj 117 270 notes 6 12 43 47 52 55 59 67;
#X obj 137 290 notes 6 12 42 47 54 59 62 64;
#X obj 58 194 route 0 1 2 3;
#X obj 58 60 r \$1-\$2-val;
#X obj 58 84 m_scale -1 1 0 5;
#X obj 370 191 noise~;
#X obj 370 213 e_reslop noise-lop 1000;
#X obj 566 167 loadbang;
#X msg 505 189 freq \$1;
#X obj 370 262 e_platereverb;
#X msg 566 189 q 7;
#X obj 505 147 m_scale -1 1 3000 6000;
#X obj 370 235 *~ 0.04;
#X obj 370 287 outlet~;
#X obj 505 125 r \$1-z-val;
#X obj 58 352 noteout \$3;
#X text 57 22 Convert an axis of the poi into musical notes;
#X text 366 97 ...and a bit of white noise;
#X text 132 353 MIDI notes to Live;
#X connect 0 0 1 0;
#X connect 1 0 5 0;
#X connect 2 0 23 0;
#X connect 2 1 23 1;
#X connect 3 0 5 1;
#X connect 4 0 10 0;
#X connect 5 0 4 0;
#X connect 6 0 2 0;
#X connect 7 0 2 0;
#X connect 8 0 2 0;
#X connect 9 0 2 0;
#X connect 10 0 6 0;
#X connect 10 1 7 0;
#X connect 10 2 8 0;
#X connect 10 3 9 0;
#X connect 11 0 12 0;
#X connect 12 0 0 0;
#X connect 13 0 14 0;
#X connect 14 0 20 0;
#X connect 15 0 18 0;
#X connect 16 0 14 1;
#X connect 17 0 21 0;
#X connect 17 1 21 0;
#X connect 18 0 14 1;
#X connect 19 0 16 0;
#X connect 20 0 17 0;
#X connect 22 0 19 0;
