#N canvas 373 306 508 387 10;
#X obj 68 278 -;
#X obj 68 300 abs;
#X obj 150 252 s \$1-\$2-val;
#X obj 68 322 s \$1-\$2-vel;
#X obj 189 154 c_lfo poi-dum-\$0 1 10 tri;
#X obj 336 110 r \$1-\$2-dummy;
#X obj 189 176 * 2;
#X obj 189 198 - 1;
#X obj 68 226 t f f f;
#X msg 336 132 on \$1;
#X obj 233 49 loadbang;
#X msg 233 71 0;
#X obj 83 254 pipe 10;
#X floatatom 149 228 5 0 0 0 - - -, f 5;
#X obj 68 194 inlet;
#X connect 0 0 1 0;
#X connect 1 0 3 0;
#X connect 4 0 6 0;
#X connect 5 0 9 0;
#X connect 6 0 7 0;
#X connect 7 0 8 0;
#X connect 8 0 12 0;
#X connect 8 1 0 0;
#X connect 8 2 2 0;
#X connect 9 0 4 1;
#X connect 10 0 11 0;
#X connect 11 0 9 0;
#X connect 12 0 0 1;
#X connect 14 0 8 0;
