#N canvas 39 376 390 420 10;
#X obj 58 106 int;
#X obj 58 128 change;
#X obj 58 327 makenote 100 100;
#X obj 58 352 noteout \$4;
#X obj 139 122 r scale-notes;
#X obj 58 172 list trim;
#X obj 58 150 list prepend 0;
#X obj 58 219 notes 6 12 40 47 52 55 59 64;
#X obj 88 245 notes 6 12 40 45 52 57 61 64;
#X obj 117 270 notes 6 12 43 47 52 55 59 67;
#X obj 137 290 notes 6 12 42 47 54 59 62 64;
#X obj 58 194 route 0 1 2 3;
#X obj 58 60 r \$1-\$2-val;
#X obj 58 84 m_scale -1 1 0 5;
#X connect 0 0 1 0;
#X connect 1 0 6 0;
#X connect 2 0 3 0;
#X connect 2 1 3 1;
#X connect 4 0 6 1;
#X connect 5 0 11 0;
#X connect 6 0 5 0;
#X connect 7 0 2 0;
#X connect 8 0 2 0;
#X connect 9 0 2 0;
#X connect 10 0 2 0;
#X connect 11 0 7 0;
#X connect 11 1 8 0;
#X connect 11 2 9 0;
#X connect 11 3 10 0;
#X connect 12 0 13 0;
#X connect 13 0 0 0;
