#N canvas 101 79 331 647 10;
#X obj 45 91 int;
#X obj 45 580 noteout \$4;
#X obj 45 157 list trim;
#X obj 45 135 list prepend 0;
#X obj 45 204 notes 6 12 40 47 52 55 59 64;
#X obj 75 230 notes 6 12 40 45 52 57 61 64;
#X obj 104 255 notes 6 12 43 47 52 55 59 67;
#X obj 124 285 notes 6 12 42 47 54 59 62 64;
#X obj 45 179 route 0 1 2 3;
#X obj 45 43 r \$1-\$2-val;
#X obj 126 111 r scale-notes;
#X obj 45 113 change;
#X obj 45 316 pack f 100;
#X obj 45 454 t b b;
#X msg 45 476 128;
#X obj 45 521 f;
#X obj 71 521 + 1;
#X msg 45 543 \$1 0;
#X msg 72 476 0;
#X obj 45 498 until;
#X obj 45 368 t b a b;
#X msg 84 397 stop;
#X obj 45 67 m_scale -1 1 0 2;
#X obj 45 426 del 500;
#X text 106 475 All notes off;
#X text 118 580 MIDI notes to Live;
#X connect 0 0 11 0;
#X connect 2 0 8 0;
#X connect 3 0 2 0;
#X connect 4 0 12 0;
#X connect 5 0 12 0;
#X connect 6 0 12 0;
#X connect 7 0 12 0;
#X connect 8 0 4 0;
#X connect 8 1 5 0;
#X connect 8 2 6 0;
#X connect 8 3 7 0;
#X connect 9 0 22 0;
#X connect 10 0 3 1;
#X connect 11 0 3 0;
#X connect 12 0 20 0;
#X connect 13 0 14 0;
#X connect 13 1 18 0;
#X connect 14 0 19 0;
#X connect 15 0 16 0;
#X connect 15 0 17 0;
#X connect 16 0 15 1;
#X connect 17 0 1 0;
#X connect 18 0 15 1;
#X connect 19 0 15 0;
#X connect 20 0 23 0;
#X connect 20 1 1 0;
#X connect 20 2 21 0;
#X connect 21 0 23 0;
#X connect 22 0 0 0;
#X connect 23 0 13 0;
