#N canvas 0 22 754 565 10;
#X obj 84 319 hip~ 400;
#X obj 146 443 hip~ 400;
#X obj 377 320 hip~ 400;
#X obj 84 297 *~ 0.85;
#X obj 377 298 *~ 0.85;
#X obj 146 421 *~ 0.8;
#X obj 148 297 delwrite~ \$1-reggae-del-l 1000;
#X obj 148 319 delread~ \$1-reggae-del-l 857.12;
#X obj 210 421 delwrite~ \$1-reggae-del-c 1000;
#X obj 210 443 delread~ \$1-reggae-del-c 428.56;
#X obj 441 171 delwrite~ \$1-reggae-del-2 1000;
#X obj 441 194 delread~ \$1-reggae-del-2 428.56;
#X obj 441 298 delwrite~ \$1-reggae-del-r 1000;
#X obj 441 320 delread~ \$1-reggae-del-r 857.12;
#X obj 85 516 outlet~;
#X obj 146 516 outlet~;
#X obj 148 48 inlet~;
#X obj 565 48 inlet;
#X obj 565 70 u_dispatch \$0-base-time;
#X obj 417 122 r \$0-base-time;
#X obj 274 232 r \$0-base-time;
#X obj 274 254 * 2;
#X obj 238 359 r \$0-base-time;
#X obj 565 90 u_dispatch \$0-feedback;
#X obj 386 235 r \$0-feedback;
#X obj 151 356 r \$0-feedback;
#X obj 151 380 * 0.9;
#X obj 148 136 *~ 1;
#X connect 0 0 6 0;
#X connect 0 0 14 0;
#X connect 1 0 8 0;
#X connect 1 0 14 0;
#X connect 1 0 15 0;
#X connect 2 0 12 0;
#X connect 2 0 15 0;
#X connect 3 0 0 0;
#X connect 4 0 2 0;
#X connect 5 0 1 0;
#X connect 7 0 3 0;
#X connect 9 0 5 0;
#X connect 11 0 12 0;
#X connect 13 0 4 0;
#X connect 16 0 27 0;
#X connect 17 0 18 0;
#X connect 18 0 23 0;
#X connect 19 0 11 0;
#X connect 20 0 21 0;
#X connect 21 0 13 0;
#X connect 21 0 7 0;
#X connect 22 0 9 0;
#X connect 24 0 4 1;
#X connect 24 0 3 1;
#X connect 25 0 26 0;
#X connect 26 0 5 1;
#X connect 27 0 6 0;
#X connect 27 0 8 0;
#X connect 27 0 10 0;
#X connect 27 0 12 0;
