#N canvas 627 87 538 608 10;
#X obj 31 29 r tick;
#X obj 76 445 inlet;
#X obj 31 139 sel 0;
#X obj 31 89 mod \$2;
#X obj 260 367 r \$1;
#X obj 131 469 r \$1-send;
#X obj 208 469 inlet;
#X obj 169 552 throw~ REPEATER-L;
#X obj 280 552 throw~ REPEATER-R;
#X obj 280 522 *~ 2;
#X obj 169 522 *~ 2;
#X msg 31 220 play;
#X msg 106 226 speed \$1;
#X obj 31 339 variable-speed-playback a \$1;
#X obj 178 280 tgl 15 0 empty empty empty 17 7 0 10 -262144 -1 -1 0
1;
#X msg 178 303 varispeed-mode \$1;
#X obj 106 201 r varispeed-speed;
#X obj 178 233 loadbang;
#X msg 178 257 0;
#X obj 31 498 instru-send \$3;
#X obj 308 436 print \$1;
#X obj 298 403 change -1;
#X obj 327 180 r \$1-delayed;
#X obj 327 208 unpack f f;
#X msg 327 345 1;
#X obj 327 233 sel 1 0;
#X msg 361 345 0;
#X obj 327 311 del 1000;
#X msg 373 283 stop;
#X obj 346 258 t b b;
#X connect 0 0 3 0;
#X connect 1 0 19 2;
#X connect 2 0 11 0;
#X connect 3 0 2 0;
#X connect 4 0 19 2;
#X connect 4 0 21 0;
#X connect 5 0 19 3;
#X connect 6 0 19 4;
#X connect 9 0 8 0;
#X connect 10 0 7 0;
#X connect 11 0 13 0;
#X connect 12 0 13 0;
#X connect 13 0 19 0;
#X connect 13 1 19 1;
#X connect 14 0 15 0;
#X connect 15 0 13 0;
#X connect 16 0 12 0;
#X connect 17 0 18 0;
#X connect 18 0 14 0;
#X connect 21 0 20 0;
#X connect 22 0 23 0;
#X connect 23 0 25 0;
#X connect 23 1 27 1;
#X connect 24 0 21 0;
#X connect 24 0 19 2;
#X connect 25 0 27 0;
#X connect 25 1 29 0;
#X connect 26 0 21 0;
#X connect 26 0 19 2;
#X connect 27 0 24 0;
#X connect 28 0 27 0;
#X connect 29 0 26 0;
#X connect 29 1 28 0;
