#N canvas 370 337 389 606 10;
#X obj 98 158 *;
#X obj 160 158 *;
#X obj 219 158 *;
#X obj 98 188 +;
#X obj 98 218 +;
#X obj 98 248 pow 0.5;
#X msg 98 128 \$1 \$1;
#X msg 160 128 \$1 \$1;
#X msg 219 128 \$1 \$1;
#X obj 215 323 outlet;
#X obj 98 15 r \$1-x-val;
#X obj 160 36 r \$1-y-val;
#X obj 219 57 r \$1-z-val;
#X floatatom 134 198 5 0 0 0 - - -, f 5;
#X floatatom 176 210 5 0 0 0 - - -, f 5;
#X floatatom 230 201 5 0 0 0 - - -, f 5;
#X obj 98 37 + 1;
#X obj 98 59 / 2;
#X obj 160 59 + 1;
#X obj 160 81 / 2;
#X obj 219 80 + 1;
#X obj 219 102 / 2;
#X obj 98 302 t f f;
#X obj 98 344 -;
#X floatatom 150 348 5 0 0 0 - - -, f 5;
#X obj 147 402 vsl 15 128 0 0.2 0 0 empty empty empty 0 -9 0 10 -262144
-1 -1 0 1;
#X obj 125 323 pipe 2;
#X obj 98 280 m_speedlimit 2;
#X obj 98 366 abs;
#X obj 264 292 t f f;
#X obj 264 334 -;
#X obj 243 397 vsl 15 128 0 0.2 0 0 empty empty empty 0 -9 0 10 -262144
-1 -1 751 1;
#X obj 264 356 abs;
#X obj 283 218 metro 10;
#X obj 250 246 f;
#X obj 293 193 tgl 15 0 empty empty empty 17 7 0 10 -262144 -1 -1 1
1;
#X obj 291 313 pipe 10;
#X floatatom 328 191 5 0 0 0 - - -, f 5;
#X obj 275 411 tgl 15 0 empty empty empty 17 7 0 10 -262144 -1 -1 1
1;
#X obj 275 389 > 0.01;
#X connect 0 0 3 0;
#X connect 0 0 13 0;
#X connect 1 0 3 1;
#X connect 1 0 14 0;
#X connect 2 0 4 1;
#X connect 2 0 15 0;
#X connect 3 0 4 0;
#X connect 4 0 5 0;
#X connect 5 0 27 0;
#X connect 6 0 0 0;
#X connect 7 0 1 0;
#X connect 8 0 2 0;
#X connect 10 0 16 0;
#X connect 10 0 34 1;
#X connect 11 0 18 0;
#X connect 12 0 20 0;
#X connect 16 0 17 0;
#X connect 17 0 6 0;
#X connect 18 0 19 0;
#X connect 19 0 7 0;
#X connect 20 0 21 0;
#X connect 21 0 8 0;
#X connect 22 0 23 0;
#X connect 22 1 24 0;
#X connect 22 1 26 0;
#X connect 23 0 28 0;
#X connect 26 0 23 1;
#X connect 27 0 22 0;
#X connect 28 0 25 0;
#X connect 29 0 30 0;
#X connect 29 1 36 0;
#X connect 30 0 32 0;
#X connect 32 0 31 0;
#X connect 32 0 39 0;
#X connect 33 0 34 0;
#X connect 34 0 29 0;
#X connect 35 0 33 0;
#X connect 36 0 30 1;
#X connect 37 0 33 1;
#X connect 39 0 38 0;
