#N canvas 225 42 1116 739 10;
#X declare -path abs;
#X declare -path audio;
#X declare -path rj;
#X declare -path oscx;
#N canvas 0 22 247 231 io 0;
#X obj 40 37 catch~ LEFT;
#X obj 140 37 catch~ RIGHT;
#X obj 40 182 dac~;
#X obj 40 157 *~;
#X obj 85 157 *~;
#X obj 100 133 lop~ 10;
#X obj 100 113 tgl 15 0 empty empty empty 17 7 0 10 -262144 -1 -1 1
1;
#X obj 100 90 loadbang;
#X obj 57 76 catch~ C;
#X connect 0 0 3 0;
#X connect 1 0 4 0;
#X connect 3 0 2 0;
#X connect 4 0 2 1;
#X connect 5 0 4 1;
#X connect 5 0 3 1;
#X connect 6 0 5 0;
#X connect 7 0 6 0;
#X connect 8 0 3 0;
#X connect 8 0 4 0;
#X restore 25 49 pd io;
#N canvas 0 22 224 218 timebase 0;
#X obj 68 37 loadbang;
#X obj 68 60 tgl 15 0 empty empty empty 17 7 0 10 -262144 -1 -1 1 1
;
#X obj 68 104 f;
#X obj 98 104 + 1;
#X obj 68 126 s tick;
#X obj 68 82 metro 10;
#X connect 0 0 1 0;
#X connect 1 0 5 0;
#X connect 2 0 3 0;
#X connect 2 0 4 0;
#X connect 3 0 2 1;
#X connect 5 0 2 0;
#X restore 25 71 pd timebase;
#N canvas 0 22 450 300 init 0;
#X obj 62 56 declare -path abs;
#X obj 62 76 declare -path audio;
#X obj 62 36 declare -path rj;
#X obj 62 96 declare -path oscx;
#X restore 25 29 pd init;
#N canvas 169 230 491 240 osc 0;
#X obj 30 17 dumpOSC 9000;
#X obj 30 41 OSCroute /rpoi-0 /rpoi-1;
#X obj 31 63 unpack f f f f f;
#X obj 124 176 poi-input 0 av;
#X obj 251 64 unpack f f f f f;
#X obj 31 92 poi-input 0 x;
#X obj 77 132 poi-input 0 z;
#X obj 54 112 poi-input 0 y;
#X obj 251 93 poi-input 1 x;
#X obj 274 113 poi-input 1 y;
#X obj 297 133 poi-input 1 z;
#X obj 344 178 poi-input 1 av;
#X obj 124 154 av-filtering;
#X obj 344 156 av-filtering;
#X text 112 18 Data in from the poi;
#X connect 0 0 1 0;
#X connect 1 0 2 0;
#X connect 1 1 4 0;
#X connect 2 0 5 0;
#X connect 2 1 7 0;
#X connect 2 2 6 0;
#X connect 2 4 12 0;
#X connect 4 0 8 0;
#X connect 4 1 9 0;
#X connect 4 2 10 0;
#X connect 4 4 13 0;
#X connect 12 0 3 0;
#X connect 13 0 11 0;
#X restore 25 108 pd osc;
#X obj 238 95 vsl 30 200 -1 1 0 0 empty empty empty 0 -9 0 10 -262130
-1 -1 39 1;
#X obj 278 95 vsl 30 200 -1 1 0 0 empty empty empty 0 -9 0 10 -262130
-1 -1 39 1;
#X obj 318 95 vsl 30 200 -1 1 0 0 empty empty empty 0 -9 0 10 -262130
-1 -1 39 1;
#X obj 428 95 vsl 30 200 -1 1 0 0 empty empty empty 0 -9 0 10 -261234
-1 -1 39 1;
#X obj 468 95 vsl 30 200 -1 1 0 0 empty empty empty 0 -9 0 10 -261234
-1 -1 39 1;
#X obj 508 95 vsl 30 200 -1 1 0 0 empty empty empty 0 -9 0 10 -261234
-1 -1 39 1;
#N canvas 295 130 882 463 poi-tones 0;
#X obj 70 132 poi-tone-bass 0 z 36 4;
#X obj 474 81 r scale-notes;
#X obj 474 199 list trim;
#X obj 474 177 list prepend 0;
#X obj 474 246 notes 6 12 40 47 52 55 59 64;
#X obj 504 272 notes 6 12 40 45 52 57 61 64;
#X obj 533 297 notes 6 12 43 47 52 55 59 67;
#X obj 553 317 notes 6 12 42 47 54 59 62 64;
#X obj 474 221 route 0 1 2 3;
#X obj 474 379 noteout 11;
#X msg 474 131 0 1 2 3 4 5 6;
#X obj 474 354 pack f 127;
#X obj 590 130 t b b;
#X msg 590 152 128;
#X obj 590 197 f;
#X obj 616 197 + 1;
#X msg 590 219 \$1 0;
#X msg 619 150 0;
#X obj 590 174 until;
#X obj 474 153 u_listdrip;
#X obj 474 103 t b a b;
#X obj 70 82 poi-tone 0 z 3;
#X obj 70 104 throw~ LEFT;
#X obj 240 104 throw~ RIGHT;
#X text 650 150 All notes off...;
#X text 669 248 For the tremolo pad sound;
#X obj 70 355 s scale-notes;
#X obj 70 332 hradio 15 1 0 4 empty empty empty 0 -8 0 10 -262144 -1
-1 0;
#X obj 158 255 tgl 15 0 empty empty empty 17 7 0 10 -262144 -1 -1 0
1;
#X obj 70 307 c_urn 4;
#X msg 125 307 clear \, bang;
#X obj 158 277 metro 7500;
#X obj 70 208 notein;
#X obj 70 230 stripnote;
#X obj 70 252 sel 60;
#X obj 70 274 spigot;
#X obj 134 252 tgl 15 0 empty empty empty 17 7 0 10 -262144 -1 -1 0
1;
#X obj 134 231 r chord-changes-on;
#X text 120 208 From Live telling us when to switch to the next chord
;
#X obj 240 82 poi-tone 1 z 2;
#X obj 240 132 poi-tone-bass 1 z 43 5;
#X connect 1 0 20 0;
#X connect 2 0 8 0;
#X connect 3 0 2 0;
#X connect 4 0 11 0;
#X connect 5 0 11 0;
#X connect 6 0 11 0;
#X connect 7 0 11 0;
#X connect 8 0 4 0;
#X connect 8 1 5 0;
#X connect 8 2 6 0;
#X connect 8 3 7 0;
#X connect 10 0 19 0;
#X connect 11 0 9 0;
#X connect 12 0 13 0;
#X connect 12 1 17 0;
#X connect 13 0 18 0;
#X connect 14 0 15 0;
#X connect 14 0 16 0;
#X connect 15 0 14 1;
#X connect 16 0 9 0;
#X connect 17 0 14 1;
#X connect 18 0 14 0;
#X connect 19 0 3 0;
#X connect 20 0 10 0;
#X connect 20 1 3 1;
#X connect 20 2 12 0;
#X connect 21 0 22 0;
#X connect 27 0 26 0;
#X connect 28 0 31 0;
#X connect 29 0 27 0;
#X connect 29 1 30 0;
#X connect 30 0 29 0;
#X connect 31 0 29 0;
#X connect 32 0 33 0;
#X connect 32 1 33 1;
#X connect 33 0 34 0;
#X connect 34 0 35 0;
#X connect 35 0 29 0;
#X connect 36 0 35 1;
#X connect 37 0 36 0;
#X connect 39 0 23 0;
#X restore 25 137 pd poi-tones;
#X obj 238 7 r 0-x-val;
#X obj 259 26 r 0-y-val;
#X obj 278 47 r 0-z-val;
#X obj 428 7 r 1-x-val;
#X obj 448 27 r 1-y-val;
#X obj 468 47 r 1-z-val;
#X obj 233 320 axis-table 0 y;
#X obj 441 320 axis-table 0 z;
#X obj 25 520 axis-table 1 x;
#X obj 233 520 axis-table 1 y;
#X obj 441 520 axis-table 1 z;
#X obj 24 320 axis-table 0 x;
#X obj 358 95 vsl 30 200 0 6400 0 0 empty empty empty 0 -9 0 10 -262130
-1 -1 0 1;
#X obj 548 95 vsl 30 200 -1 1 0 0 empty empty empty 0 -9 0 10 -261234
-1 -1 39 1;
#X obj 328 67 r 0-av-val;
#X obj 518 67 r 1-av-val;
#X obj 651 320 axis-table-av 0;
#N canvas 325 93 1056 531 angular-velocity 0;
#X obj 38 37 r 0-av-val;
#X msg 68 149 0;
#X obj 68 239 change;
#X msg 165 177 2;
#X msg 208 185 3;
#X msg 259 196 4;
#X obj 208 158 moses 800;
#X obj 68 470 noteout 7;
#X obj 68 445 pack f 127;
#X obj 68 403 line;
#X floatatom 78 425 5 0 0 0 - - -, f 5;
#X obj 423 362 pack f 127;
#X obj 423 387 noteout 8;
#X msg 111 160 1;
#X obj 68 323 t b b;
#X msg 68 345 0;
#X obj 118 323 t b b;
#X obj 68 381 pack f 1500;
#X obj 168 323 t b b;
#X msg 423 337 1;
#X msg 168 345 103;
#X msg 118 345 80;
#X msg 38 81 -1;
#X obj 38 59 moses 50;
#X obj 353 444 pack f 127;
#X msg 353 419 1;
#X obj 353 469 noteout 9;
#X obj 353 270 sel -1;
#X msg 369 371 stop;
#X obj 353 395 del 500;
#X obj 68 292 sel 0 1 2;
#X obj 165 135 moses 1600;
#X obj 111 110 moses 400;
#X obj 68 87 moses 100;
#X msg 551 151 0;
#X obj 551 241 change;
#X floatatom 628 62 5 0 0 0 - - -, f 5;
#X msg 648 179 2;
#X msg 691 187 3;
#X msg 742 198 4;
#X obj 691 160 moses 800;
#X msg 594 162 1;
#X msg 521 83 -1;
#X obj 521 61 moses 50;
#X obj 648 137 moses 1600;
#X obj 594 112 moses 400;
#X obj 551 89 moses 100;
#X obj 521 39 r 1-av-val;
#X obj 551 317 s chord-changes-on;
#X obj 551 293 > 0;
#X obj 668 422 line;
#X obj 668 469 noteout 12;
#X obj 668 356 tgl 15 0 empty empty empty 17 7 0 10 -262144 -1 -1 0
1;
#X obj 668 444 pack f 127;
#X obj 668 376 * 110;
#X msg 606 264 1;
#X obj 606 242 del 10000;
#X obj 668 400 pack f 15000;
#X text 198 345 Set the tempo of the Live session;
#X obj 76 263 nbx 4 24 -1e+37 1e+37 0 0 empty empty empty 0 -8 0 20
-262144 -1 -1 0 256;
#X text 738 470 Tremolo pad volume;
#X text 418 470 Stop button in Live;
#X text 132 471 Live master tempo;
#X text 486 388 Scene 1 button in Live;
#X text 670 243 Hack for MHD presentation because we didn't have the
second poi working! :-(;
#X text 108 32 Angular velocity (basic inidicator of overall 'speed'
of the poi). Split up into thresholds to control various things in
Live;
#X connect 0 0 23 0;
#X connect 1 0 2 0;
#X connect 2 0 27 0;
#X connect 2 0 30 0;
#X connect 2 0 59 0;
#X connect 3 0 2 0;
#X connect 4 0 2 0;
#X connect 5 0 2 0;
#X connect 6 0 4 0;
#X connect 6 1 5 0;
#X connect 8 0 7 0;
#X connect 9 0 10 0;
#X connect 9 0 8 0;
#X connect 11 0 12 0;
#X connect 13 0 2 0;
#X connect 14 0 15 0;
#X connect 15 0 17 0;
#X connect 16 0 21 0;
#X connect 17 0 9 0;
#X connect 18 0 20 0;
#X connect 18 1 56 0;
#X connect 19 0 11 0;
#X connect 19 0 28 0;
#X connect 20 0 17 0;
#X connect 21 0 17 0;
#X connect 22 0 2 0;
#X connect 23 0 22 0;
#X connect 23 1 33 0;
#X connect 24 0 26 0;
#X connect 25 0 24 0;
#X connect 27 0 29 0;
#X connect 27 1 19 0;
#X connect 28 0 29 0;
#X connect 29 0 25 0;
#X connect 30 0 14 0;
#X connect 30 1 16 0;
#X connect 30 2 18 0;
#X connect 31 0 3 0;
#X connect 31 1 6 0;
#X connect 32 0 13 0;
#X connect 32 1 31 0;
#X connect 33 0 1 0;
#X connect 33 1 32 0;
#X connect 34 0 35 0;
#X connect 35 0 49 0;
#X connect 36 0 46 0;
#X connect 37 0 35 0;
#X connect 38 0 35 0;
#X connect 39 0 35 0;
#X connect 40 0 38 0;
#X connect 40 1 39 0;
#X connect 41 0 35 0;
#X connect 42 0 35 0;
#X connect 43 0 42 0;
#X connect 43 1 46 0;
#X connect 44 0 37 0;
#X connect 44 1 40 0;
#X connect 45 0 41 0;
#X connect 45 1 44 0;
#X connect 46 0 34 0;
#X connect 46 1 45 0;
#X connect 47 0 43 0;
#X connect 49 0 48 0;
#X connect 49 0 52 0;
#X connect 50 0 53 0;
#X connect 52 0 54 0;
#X connect 53 0 51 0;
#X connect 54 0 57 0;
#X connect 55 0 49 0;
#X connect 56 0 55 0;
#X connect 57 0 50 0;
#X restore 25 158 pd angular-velocity;
#X obj 884 314 r 0-av-val;
#X obj 884 336 +;
#X obj 953 314 r 1-av-val;
#X obj 884 388 s 0-1-av-val;
#X obj 884 358 / 2;
#X obj 586 281 s axis-reset;
#X obj 586 260 bng 15 250 50 0 empty empty empty 17 7 0 10 -262144
-1 -1;
#X obj 651 520 axis-table-av 1;
#X obj 884 426 axis-table-av 0-1;
#X connect 11 0 4 0;
#X connect 12 0 5 0;
#X connect 13 0 6 0;
#X connect 14 0 7 0;
#X connect 15 0 8 0;
#X connect 16 0 9 0;
#X connect 25 0 23 0;
#X connect 26 0 24 0;
#X connect 29 0 30 0;
#X connect 30 0 33 0;
#X connect 31 0 30 1;
#X connect 33 0 32 0;
#X connect 35 0 34 0;
