#N canvas 26 50 996 998 10;
#X declare -path abs;
#X declare -path audio;
#X declare -path rj;
#X declare -path oscx;
#N canvas 0 22 449 374 io 0;
#X obj 113 42 catch~ LEFT;
#X obj 213 42 catch~ RIGHT;
#X obj 113 277 dac~;
#X obj 113 232 *~;
#X obj 213 232 *~;
#X obj 228 208 lop~ 10;
#X obj 228 188 tgl 15 0 empty empty empty 17 7 0 10 -262144 -1 -1 1
1;
#X obj 228 165 loadbang;
#X obj 113 134 e_master;
#X obj 218 79 loadbang;
#X obj 130 81 catch~ C;
#X obj 334 86 adc~;
#X msg 218 101 0.01;
#X connect 0 0 8 0;
#X connect 1 0 8 1;
#X connect 3 0 2 0;
#X connect 4 0 2 1;
#X connect 5 0 4 1;
#X connect 5 0 3 1;
#X connect 6 0 5 0;
#X connect 7 0 6 0;
#X connect 8 0 3 0;
#X connect 8 1 4 0;
#X connect 9 0 12 0;
#X connect 10 0 8 0;
#X connect 10 0 8 1;
#X connect 11 0 8 0;
#X connect 11 1 8 1;
#X connect 12 0 8 2;
#X restore 25 49 pd io;
#N canvas 0 22 450 300 timebase 0;
#X obj 106 52 loadbang;
#X obj 106 75 tgl 15 0 empty empty empty 17 7 0 10 -262144 -1 -1 1
1;
#X obj 106 119 f;
#X obj 136 119 + 1;
#X obj 106 141 s tick;
#X obj 106 97 metro 10;
#X connect 0 0 1 0;
#X connect 1 0 5 0;
#X connect 2 0 3 0;
#X connect 2 0 4 0;
#X connect 3 0 2 1;
#X connect 5 0 2 0;
#X restore 25 71 pd timebase;
#N canvas 0 22 450 300 init 0;
#X obj 62 56 declare -path abs;
#X obj 62 76 declare -path audio;
#X obj 62 36 declare -path rj;
#X obj 62 96 declare -path oscx;
#X restore 25 29 pd init;
#N canvas 241 444 506 235 osc 1;
#X obj 30 17 dumpOSC 9000;
#X obj 30 41 OSCroute /rpoi-0 /rpoi-1;
#X obj 31 63 unpack f f f f f;
#X obj 125 192 poi-input 0 av;
#X obj 251 64 unpack f f f f f;
#X floatatom 139 87 5 0 0 0 - - -, f 5;
#N canvas 0 22 456 377 av-filtering 1;
#X obj 158 79 line;
#X obj 158 57 pack f 500;
#X obj 158 136 * 0.9;
#X obj 158 188 +;
#X obj 158 210 / 2;
#X obj 173 162 f;
#X obj 158 112 t f b;
#X obj 158 232 t f f;
#X obj 158 254 * 5;
#X obj 148 316 line;
#X obj 148 33 inlet;
#X obj 148 338 outlet;
#X obj 148 294 pack f 250;
#X floatatom 215 138 5 0 0 0 - - -, f 5;
#X connect 0 0 6 0;
#X connect 1 0 0 0;
#X connect 2 0 3 0;
#X connect 3 0 4 0;
#X connect 4 0 7 0;
#X connect 5 0 3 1;
#X connect 6 0 2 0;
#X connect 6 1 5 0;
#X connect 7 0 8 0;
#X connect 7 1 5 1;
#X connect 8 0 12 0;
#X connect 9 0 11 0;
#X connect 10 0 13 0;
#X connect 10 0 12 0;
#X connect 12 0 9 0;
#X restore 125 164 pd av-filtering;
#X floatatom 195 135 5 0 0 0 - - -, f 5;
#X obj 31 92 poi-input 0 x;
#X obj 85 132 poi-input 0 z;
#X obj 58 112 poi-input 0 y;
#X obj 251 93 poi-input 1 x;
#X obj 278 113 poi-input 1 y;
#X obj 305 133 poi-input 1 z;
#X obj 365 155 poi-input 1 av;
#X connect 0 0 1 0;
#X connect 1 0 2 0;
#X connect 1 1 4 0;
#X connect 2 0 8 0;
#X connect 2 1 10 0;
#X connect 2 2 9 0;
#X connect 2 4 5 0;
#X connect 2 4 6 0;
#X connect 4 0 11 0;
#X connect 4 1 12 0;
#X connect 4 2 13 0;
#X connect 4 4 14 0;
#X connect 6 0 3 0;
#X restore 25 108 pd osc;
#N canvas 365 183 594 539 phasors 0;
#X obj 178 84 s g-phasor-play;
#X obj 188 165 bng 15 250 50 0 empty empty empty 17 7 0 10 -262144
-1 -1;
#X obj 178 184 s g-phasor-stop;
#X obj 178 344 s g-phasor-speed;
#X obj 178 215 r speed;
#X obj 178 377 r phasor-2048-tick;
#X obj 178 400 s tick;
#X obj 287 204 r speed-to-varispeed-on;
#X obj 287 228 t f f;
#X obj 287 252 sel 0;
#X msg 287 274 1;
#X obj 178 16 loadbang;
#X obj 178 41 t b b;
#X obj 188 64 bng 15 250 50 0 empty empty empty 17 7 0 10 -262144 -1
-1;
#X obj 178 119 r reset;
#X msg 178 143 bang;
#X obj 243 15 r start;
#X obj 70 197 gphasor 1280;
#X obj 479 99 vsl 15 128 -1 1 0 0 empty empty empty 0 -9 0 10 -262144
-1 -1 0 1;
#X floatatom 492 239 5 0 0 0 - - -, f 5;
#X msg 494 64 0;
#X obj 444 51 line;
#X obj 445 17 pack f 1000;
#X msg 449 -10 0;
#X msg 482 -11 1;
#X msg 521 -11 -1;
#X obj 256 -11 r reset-timebase-soft;
#X obj 68 445 gphasor-noreset 512;
#X msg 201 -8 1;
#X floatatom 296 347 5 0 0 0 - - -, f 5;
#X obj 178 320 * 1;
#X obj 178 264 spigot 1;
#X floatatom 199 236 5 0 0 0 - - -, f 5;
#X obj 70 237 gphasor 2048;
#X obj 70 217 gphasor 1536;
#X obj 70 57 gphasor 128;
#X obj 70 157 gphasor 768;
#X obj 70 77 gphasor 256;
#X obj 70 37 gphasor 64;
#X obj 70 137 gphasor 512;
#X obj 70 177 gphasor 1024;
#X obj 70 257 gphasor 3072;
#X obj 70 117 gphasor 384;
#X obj 70 97 gphasor 272;
#X connect 1 0 2 0;
#X connect 4 0 31 0;
#X connect 7 0 8 0;
#X connect 8 0 9 0;
#X connect 8 1 31 1;
#X connect 9 0 10 0;
#X connect 10 0 30 0;
#X connect 12 0 0 0;
#X connect 12 1 10 0;
#X connect 13 0 0 0;
#X connect 14 0 15 0;
#X connect 15 0 2 0;
#X connect 16 0 12 0;
#X connect 18 0 19 0;
#X connect 18 0 30 0;
#X connect 20 0 18 0;
#X connect 21 0 18 0;
#X connect 22 0 21 0;
#X connect 23 0 22 0;
#X connect 24 0 22 0;
#X connect 25 0 22 0;
#X connect 26 0 12 0;
#X connect 28 0 12 0;
#X connect 30 0 3 0;
#X connect 30 0 29 0;
#X connect 31 0 30 0;
#X connect 32 0 31 0;
#X restore 25 150 pd phasors;
#N canvas 0 22 482 190 samplebanks 0;
#X obj 57 47 u_samplebank2 drumAndBassDrums2 drumAndBassDrums1.wav
;
#X obj 57 67 u_samplebank2 techno-beat-1 techno-beat-1.wav;
#X restore 25 129 pd samplebanks;
#X obj 395 34 simple-loop-varispeed drumAndBassDrums2 256 E;
#X obj 104 449 s speed;
#X obj 104 427 m_scale2 0.001 0.06 0 1 1;
#X obj 104 407 spigot;
#N canvas 234 462 541 388 poi-synth 0;
#X obj 92 141 change;
#X obj 92 163 sel 1;
#X obj 86 192 bng 15 250 50 0 empty empty empty 17 7 0 10 -262144 -1
-1;
#X obj 138 205 s play-note;
#X obj 84 235 melody-seq;
#N canvas 898 167 595 495 drums 0;
#X obj 41 354 readsf~ 2;
#X obj 41 281 t b a;
#X msg 41 330 1;
#X msg 41 256 kick-1.wav;
#X obj 83 305 symbol;
#X msg 79 330 open audio/\$1;
#X obj 41 416 throw~ LEFT;
#X obj 55 435 throw~ RIGHT;
#X obj 41 47 r step;
#X obj 41 129 sel 0 1 2 3 4 5 6 7;
#X obj 181 354 readsf~ 2;
#X obj 181 281 t b a;
#X msg 181 330 1;
#X obj 223 305 symbol;
#X msg 219 330 open audio/\$1;
#X obj 181 416 throw~ LEFT;
#X obj 195 435 throw~ RIGHT;
#X msg 181 256 click-1.wav;
#X obj 341 354 readsf~ 2;
#X obj 341 281 t b a;
#X msg 341 330 1;
#X obj 383 305 symbol;
#X msg 379 330 open audio/\$1;
#X obj 341 416 throw~ LEFT;
#X obj 355 435 throw~ RIGHT;
#X msg 341 256 hh-1.wav;
#X obj 341 232 del;
#X obj 401 95 r x-peak-interval;
#X obj 401 117 / 2;
#X obj 341 108 mod 2;
#X obj 341 130 sel 0 1;
#X obj 341 174 sel 0;
#X obj 401 174 sel 0;
#X obj 401 152 random 1;
#X obj 341 152 random 1;
#X connect 0 0 6 0;
#X connect 0 1 7 0;
#X connect 1 0 2 0;
#X connect 1 1 4 0;
#X connect 2 0 0 0;
#X connect 3 0 1 0;
#X connect 4 0 5 0;
#X connect 5 0 0 0;
#X connect 8 0 9 0;
#X connect 8 0 29 0;
#X connect 9 0 3 0;
#X connect 9 2 17 0;
#X connect 9 4 3 0;
#X connect 9 7 3 0;
#X connect 10 0 15 0;
#X connect 10 1 16 0;
#X connect 11 0 12 0;
#X connect 11 1 13 0;
#X connect 12 0 10 0;
#X connect 13 0 14 0;
#X connect 14 0 10 0;
#X connect 17 0 11 0;
#X connect 18 0 23 0;
#X connect 18 1 24 0;
#X connect 19 0 20 0;
#X connect 19 1 21 0;
#X connect 20 0 18 0;
#X connect 21 0 22 0;
#X connect 22 0 18 0;
#X connect 25 0 19 0;
#X connect 26 0 25 0;
#X connect 27 0 28 0;
#X connect 28 0 26 1;
#X connect 29 0 30 0;
#X connect 30 0 34 0;
#X connect 30 1 33 0;
#X connect 31 0 26 0;
#X connect 32 0 26 0;
#X connect 33 0 32 0;
#X connect 34 0 31 0;
#X restore 85 288 pd drums;
#X obj 155 155 bng 15 250 50 0 empty empty empty 17 7 0 10 -262144
-1 -1;
#X floatatom 150 127 5 0 0 0 - - -, f 5;
#X obj 92 119 < -0.9;
#X floatatom 48 96 5 0 0 0 - - -, f 5;
#X floatatom 116 101 5 0 0 0 - - -, f 5;
#X obj 92 67 r 0-z-val;
#X obj 172 177 spigot;
#X obj 215 148 tgl 15 0 empty empty empty 17 7 0 10 -262144 -1 -1 0
1;
#X obj 207 76 c_lfo poi-dum 1 10 tri;
#X obj 207 98 * 2;
#X obj 207 120 - 1;
#X obj 242 161 s 0-z-val;
#X connect 0 0 1 0;
#X connect 1 0 2 0;
#X connect 1 0 12 0;
#X connect 6 0 3 0;
#X connect 8 0 0 0;
#X connect 8 0 10 0;
#X connect 11 0 9 0;
#X connect 11 0 8 0;
#X connect 12 0 3 0;
#X connect 13 0 12 1;
#X connect 14 0 15 0;
#X connect 15 0 16 0;
#X restore 145 238 pd poi-synth;
#X obj 288 296 vsl 30 200 -1 1 0 0 empty empty empty 0 -9 0 10 -262130
-1 -1 2850 1;
#X obj 276 92 r play-note;
#X obj 276 114 f;
#X obj 302 114 + 1;
#X obj 276 136 mod 8;
#X obj 276 158 s step;
#X obj 338 144 t b b;
#X obj 338 166 timer;
#X obj 338 188 s x-peak-interval;
#X obj 328 296 vsl 30 200 -1 1 0 0 empty empty empty 0 -9 0 10 -262130
-1 -1 12395 1;
#X obj 368 296 vsl 30 200 -1 1 0 0 empty empty empty 0 -9 0 10 -262130
-1 -1 16478 1;
#X obj 104 385 r 0-x-vel;
#X obj 478 296 vsl 30 200 -1 1 0 0 empty empty empty 0 -9 0 10 -261234
-1 -1 2647 1;
#X obj 518 296 vsl 30 200 -1 1 0 0 empty empty empty 0 -9 0 10 -261234
-1 -1 5214 1;
#X obj 558 296 vsl 30 200 -1 1 0 0 empty empty empty 0 -9 0 10 -261234
-1 -1 5124 1;
#X obj 44 487 r tick;
#X obj 42 518 mod 1000;
#X obj 124 536 hsl 198 15 0 1000 0 0 empty empty empty -2 -8 0 10 -262144
-1 -1 0 1;
#X obj 334 536 hsl 198 15 0 1000 0 0 empty empty empty -2 -8 0 10 -262144
-1 -1 0 1;
#X obj 541 536 hsl 198 15 0 1000 0 0 empty empty empty -2 -8 0 10 -262144
-1 -1 0 1;
#N canvas 29 175 828 547 poi-tones 1;
#X obj 452 369 noise~;
#X obj 452 391 e_reslop noise-lop 1000;
#X obj 648 345 loadbang;
#X msg 587 367 freq \$1;
#X obj 587 303 r 0-z-val;
#X obj 452 440 e_platereverb;
#X msg 648 367 q 7;
#X obj 452 413 *~ 0.1;
#X obj 452 465 throw~ RIGHT;
#X obj 148 365 noise~;
#X obj 148 387 e_reslop noise-lop 1000;
#X obj 344 341 loadbang;
#X msg 283 363 freq \$1;
#X obj 148 436 e_platereverb;
#X msg 344 363 q 7;
#X obj 148 409 *~ 0.1;
#X obj 283 299 r 1-z-val;
#X obj 148 461 throw~ LEFT;
#X obj 240 82 poi-tone 1 z y 2;
#X obj 70 82 poi-tone 0 z y 3;
#X obj 283 321 m_scale -1 1 3000 6000;
#X obj 587 325 m_scale -1 1 3000 6000;
#X obj 70 112 poi-tone-bass 0 z 36 4;
#X obj 240 112 poi-tone-bass 1 z 43 5;
#X connect 0 0 1 0;
#X connect 1 0 7 0;
#X connect 2 0 6 0;
#X connect 3 0 1 1;
#X connect 4 0 21 0;
#X connect 5 0 8 0;
#X connect 5 1 8 0;
#X connect 6 0 1 1;
#X connect 7 0 5 0;
#X connect 9 0 10 0;
#X connect 10 0 15 0;
#X connect 11 0 14 0;
#X connect 12 0 10 1;
#X connect 13 0 17 0;
#X connect 13 1 17 0;
#X connect 14 0 10 1;
#X connect 15 0 13 0;
#X connect 16 0 20 0;
#X connect 20 0 12 0;
#X connect 21 0 3 0;
#X restore 37 215 pd poi-tones;
#N canvas 168 494 450 300 combined 0;
#X restore 389 900 pd combined;
#X obj 143 160 s scale-notes;
#X obj 143 137 hradio 15 1 0 4 empty empty empty 0 -8 0 10 -262144
-1 -1 1;
#X obj 395 54 simple-loop-varispeed techno-beat-1 128;
#X obj 288 208 r 0-x-val;
#X obj 309 227 r 0-y-val;
#X obj 328 248 r 0-z-val;
#X obj 478 208 r 1-x-val;
#X obj 498 228 r 1-y-val;
#X obj 518 248 r 1-z-val;
#X floatatom 513 135 5 0 0 0 - - -, f 5;
#X obj 121 896 saxis-table-read 0 x;
#X obj 121 916 saxis-table-read 0 y;
#X obj 121 936 asxis-table-read 0 z;
#X obj 251 896 axis-tasble-read 1 x;
#X obj 252 916 axis-tasble-read 1 y;
#X obj 251 936 axis-tasble-read 1 z;
#X obj 124 736 hsl 198 15 0 1000 0 0 empty empty empty -2 -8 0 10 -262144
-1 -1 0 1;
#X obj 334 736 hsl 198 15 0 1000 0 0 empty empty empty -2 -8 0 10 -262144
-1 -1 0 1;
#X obj 541 736 hsl 198 15 0 1000 0 0 empty empty empty -2 -8 0 10 -262144
-1 -1 0 1;
#X obj 330 512 axis-table 0 y;
#X obj 538 512 axis-table 0 z;
#X obj 122 712 axis-table 1 x;
#X obj 330 712 axis-table 1 y;
#X obj 538 712 axis-table 1 z;
#X obj 121 512 axis-table 0 x;
#X obj 143 68 tgl 15 0 empty empty empty 17 7 0 10 -262144 -1 -1 0
1;
#X obj 143 112 c_urn 4;
#X msg 198 112 clear \, bang;
#X obj 166 185 print scale;
#X obj 143 90 metro 7500;
#X obj 408 296 vsl 30 200 0 6400 0 0 empty empty empty 0 -9 0 10 -262130
-1 -1 0 1;
#X obj 598 296 vsl 30 200 -1 1 0 0 empty empty empty 0 -9 0 10 -261234
-1 -1 9950 1;
#X obj 378 268 r 0-av-val;
#X obj 568 268 r 1-av-val;
#X floatatom 408 241 5 0 0 0 - - -, f 5;
#X obj 751 736 hsl 198 15 0 1000 0 0 empty empty empty -2 -8 0 10 -262144
-1 -1 0 1;
#X obj 748 512 axis-table-av 0;
#X obj 939 375 sel 0;
#X obj 939 439 pack f 127;
#X msg 939 418 1;
#X obj 939 464 noteout 9;
#X obj 939 397 t b b;
#X msg 1020 402 1 127;
#X msg 1032 430 1 0;
#X obj 748 712 axis-table-av 1;
#N canvas 0 22 392 508 angular-velocity 1;
#X obj 68 37 r 0-av-val;
#X msg 68 129 0;
#X obj 68 219 change;
#X floatatom 145 40 5 0 0 0 - - -, f 5;
#X obj 204 71 nbx 4 24 -1e+37 1e+37 0 0 empty empty empty 0 -8 0 20
-262144 -1 -1 6.21611e-21 256;
#X msg 165 157 2;
#X msg 208 165 3;
#X msg 259 176 4;
#X obj 208 138 moses 800;
#X obj 68 440 noteout 7;
#X obj 68 415 pack f 127;
#X obj 68 373 line;
#X floatatom 78 395 5 0 0 0 - - -, f 5;
#X obj 221 381 pack f 127;
#X obj 221 406 noteout 8;
#X msg 111 140 1;
#X obj 68 241 sel 0 1 2 3 4;
#X obj 68 293 t b b;
#X msg 68 315 0;
#X obj 118 293 t b b;
#X obj 68 351 pack f 1500;
#X obj 168 293 t b b;
#X floatatom 25 279 5 0 0 0 - - -, f 5;
#X msg 221 356 1;
#X msg 253 345 2;
#X obj 230 218 nbx 4 24 -1e+37 1e+37 0 0 empty empty empty 0 -8 0 20
-262144 -1 -1 0 256;
#X obj 218 293 t b b;
#X msg 218 315 116;
#X msg 168 315 103;
#X msg 118 315 80;
#X obj 111 90 moses 500;
#X obj 165 115 moses 800;
#X obj 68 67 moses 200;
#X connect 0 0 4 0;
#X connect 0 0 32 0;
#X connect 1 0 2 0;
#X connect 2 0 16 0;
#X connect 2 0 25 0;
#X connect 3 0 32 0;
#X connect 5 0 2 0;
#X connect 6 0 2 0;
#X connect 7 0 2 0;
#X connect 8 0 6 0;
#X connect 8 1 7 0;
#X connect 10 0 9 0;
#X connect 11 0 12 0;
#X connect 11 0 10 0;
#X connect 13 0 14 0;
#X connect 15 0 2 0;
#X connect 16 0 17 0;
#X connect 16 1 19 0;
#X connect 16 2 21 0;
#X connect 17 0 18 0;
#X connect 18 0 20 0;
#X connect 19 0 29 0;
#X connect 19 1 23 0;
#X connect 20 0 11 0;
#X connect 21 0 28 0;
#X connect 22 0 20 0;
#X connect 23 0 13 0;
#X connect 24 0 13 0;
#X connect 26 0 27 0;
#X connect 28 0 20 0;
#X connect 29 0 20 0;
#X connect 30 0 15 0;
#X connect 30 1 31 0;
#X connect 31 0 5 0;
#X connect 31 1 8 0;
#X connect 32 0 1 0;
#X connect 32 1 30 0;
#X restore 692 138 pd angular-velocity;
#X connect 8 0 7 0;
#X connect 9 0 8 0;
#X connect 12 0 13 0;
#X connect 12 0 17 0;
#X connect 13 0 14 0;
#X connect 13 0 15 0;
#X connect 14 0 13 1;
#X connect 15 0 16 0;
#X connect 17 0 18 0;
#X connect 17 1 18 1;
#X connect 18 0 19 0;
#X connect 22 0 9 0;
#X connect 27 0 28 0;
#X connect 27 0 29 0;
#X connect 27 0 30 0;
#X connect 34 0 33 0;
#X connect 36 0 11 0;
#X connect 37 0 20 0;
#X connect 38 0 21 0;
#X connect 39 0 23 0;
#X connect 40 0 24 0;
#X connect 41 0 25 0;
#X connect 58 0 62 0;
#X connect 59 0 34 0;
#X connect 59 0 61 0;
#X connect 59 1 60 0;
#X connect 60 0 59 0;
#X connect 62 0 59 0;
#X connect 65 0 63 0;
#X connect 65 0 67 0;
#X connect 66 0 64 0;
#X connect 70 0 74 0;
#X connect 71 0 73 0;
#X connect 72 0 71 0;
#X connect 74 0 72 0;
#X connect 75 0 73 0;
#X connect 76 0 73 0;
